<mxfile host="65bd71144e">
    <diagram id="PnVsh7TulXipPlyEERRt" name="Page-1">
        <mxGraphModel dx="601" dy="514" grid="1" gridSize="10" guides="1" tooltips="1" connect="1" arrows="1" fold="1" page="1" pageScale="1" pageWidth="827" pageHeight="1169" math="0" shadow="0">
            <root>
                <mxCell id="0"/>
                <mxCell id="1" parent="0"/>
                <mxCell id="4" style="edgeStyle=none;html=1;entryX=0;entryY=0.4583333333333333;entryDx=0;entryDy=0;entryPerimeter=0;" edge="1" parent="1" source="2" target="3">
                    <mxGeometry relative="1" as="geometry"/>
                </mxCell>
                <mxCell id="2" value="in" style="verticalLabelPosition=bottom;shadow=0;dashed=0;align=center;html=1;verticalAlign=top;shape=mxgraph.electrical.logic_gates.inverting_contact;" parent="1" vertex="1">
                    <mxGeometry x="80" y="300" width="10" height="10" as="geometry"/>
                </mxCell>
                <mxCell id="9" style="edgeStyle=elbowEdgeStyle;html=1;exitX=1;exitY=0.21666666666666667;exitDx=0;exitDy=3;exitPerimeter=0;entryX=0;entryY=0.4583333333333333;entryDx=0;entryDy=0;entryPerimeter=0;" edge="1" parent="1" source="3" target="7">
                    <mxGeometry relative="1" as="geometry"/>
                </mxCell>
                <mxCell id="11" value="pre" style="edgeLabel;html=1;align=center;verticalAlign=middle;resizable=0;points=[];" vertex="1" connectable="0" parent="9">
                    <mxGeometry x="0.0469" y="-3" relative="1" as="geometry">
                        <mxPoint y="-1" as="offset"/>
                    </mxGeometry>
                </mxCell>
                <mxCell id="10" style="edgeStyle=elbowEdgeStyle;html=1;exitX=1;exitY=0.65;exitDx=0;exitDy=3;exitPerimeter=0;entryX=0;entryY=0.4583333333333333;entryDx=0;entryDy=0;entryPerimeter=0;" edge="1" parent="1" source="3" target="8">
                    <mxGeometry relative="1" as="geometry"/>
                </mxCell>
                <mxCell id="12" value="post" style="edgeLabel;html=1;align=center;verticalAlign=middle;resizable=0;points=[];" vertex="1" connectable="0" parent="10">
                    <mxGeometry x="0.0178" y="-3" relative="1" as="geometry">
                        <mxPoint as="offset"/>
                    </mxGeometry>
                </mxCell>
                <mxCell id="3" value="DMux" style="shadow=0;dashed=0;align=center;html=1;strokeWidth=1;shape=mxgraph.electrical.abstract.mux2;operation=demux;" vertex="1" parent="1">
                    <mxGeometry x="180" y="250" width="80" height="120" as="geometry"/>
                </mxCell>
                <mxCell id="6" value="sel[1]" style="edgeStyle=elbowEdgeStyle;html=1;entryX=0.375;entryY=1;entryDx=10;entryDy=0;entryPerimeter=0;" edge="1" parent="1" source="5" target="3">
                    <mxGeometry relative="1" as="geometry"/>
                </mxCell>
                <mxCell id="16" style="edgeStyle=isometricEdgeStyle;html=1;entryX=0.375;entryY=1;entryDx=10;entryDy=0;entryPerimeter=0;fillColor=#1ba1e2;strokeColor=#006EAF;" edge="1" parent="1" source="5" target="7">
                    <mxGeometry relative="1" as="geometry">
                        <Array as="points">
                            <mxPoint x="320" y="440"/>
                            <mxPoint x="310" y="420"/>
                            <mxPoint x="250" y="410"/>
                            <mxPoint x="350" y="460"/>
                        </Array>
                    </mxGeometry>
                </mxCell>
                <mxCell id="17" style="edgeStyle=isometricEdgeStyle;html=1;entryX=0.375;entryY=1;entryDx=10;entryDy=0;entryPerimeter=0;fillColor=#1ba1e2;strokeColor=#006EAF;" edge="1" parent="1" source="5" target="8">
                    <mxGeometry relative="1" as="geometry">
                        <Array as="points">
                            <mxPoint x="400" y="490"/>
                        </Array>
                    </mxGeometry>
                </mxCell>
                <mxCell id="18" value="sel[0]" style="edgeLabel;html=1;align=center;verticalAlign=middle;resizable=0;points=[];" vertex="1" connectable="0" parent="17">
                    <mxGeometry x="-0.5018" y="-3" relative="1" as="geometry">
                        <mxPoint as="offset"/>
                    </mxGeometry>
                </mxCell>
                <mxCell id="5" value="sel" style="verticalLabelPosition=bottom;shadow=0;dashed=0;align=center;html=1;verticalAlign=top;shape=mxgraph.electrical.logic_gates.inverting_contact;" vertex="1" parent="1">
                    <mxGeometry x="215" y="550" width="10" height="10" as="geometry"/>
                </mxCell>
                <mxCell id="23" style="html=1;exitX=1;exitY=0.21666666666666667;exitDx=0;exitDy=3;exitPerimeter=0;entryX=0.1;entryY=0.5;entryDx=0;entryDy=0;entryPerimeter=0;edgeStyle=elbowEdgeStyle;" edge="1" parent="1" source="7" target="19">
                    <mxGeometry relative="1" as="geometry"/>
                </mxCell>
                <mxCell id="24" style="html=1;exitX=1;exitY=0.65;exitDx=0;exitDy=3;exitPerimeter=0;entryX=0.9;entryY=0.5;entryDx=0;entryDy=0;entryPerimeter=0;edgeStyle=elbowEdgeStyle;" edge="1" parent="1" source="7" target="20">
                    <mxGeometry relative="1" as="geometry"/>
                </mxCell>
                <mxCell id="7" value="DMux" style="shadow=0;dashed=0;align=center;html=1;strokeWidth=1;shape=mxgraph.electrical.abstract.mux2;operation=demux;" vertex="1" parent="1">
                    <mxGeometry x="450" y="140" width="80" height="120" as="geometry"/>
                </mxCell>
                <mxCell id="25" style="html=1;exitX=1;exitY=0.21666666666666667;exitDx=0;exitDy=3;exitPerimeter=0;entryX=0.9;entryY=0.5;entryDx=0;entryDy=0;entryPerimeter=0;edgeStyle=elbowEdgeStyle;" edge="1" parent="1" source="8" target="21">
                    <mxGeometry relative="1" as="geometry"/>
                </mxCell>
                <mxCell id="26" style="html=1;exitX=1;exitY=0.65;exitDx=0;exitDy=3;exitPerimeter=0;entryX=0.9;entryY=0.5;entryDx=0;entryDy=0;entryPerimeter=0;edgeStyle=elbowEdgeStyle;" edge="1" parent="1" source="8" target="22">
                    <mxGeometry relative="1" as="geometry"/>
                </mxCell>
                <mxCell id="8" value="DMux" style="shadow=0;dashed=0;align=center;html=1;strokeWidth=1;shape=mxgraph.electrical.abstract.mux2;operation=demux;" vertex="1" parent="1">
                    <mxGeometry x="440" y="360" width="80" height="120" as="geometry"/>
                </mxCell>
                <mxCell id="19" value="a" style="verticalLabelPosition=bottom;shadow=0;dashed=0;align=center;html=1;verticalAlign=top;shape=mxgraph.electrical.logic_gates.inverting_contact;" vertex="1" parent="1">
                    <mxGeometry x="600" y="190" width="10" height="10" as="geometry"/>
                </mxCell>
                <mxCell id="20" value="b" style="verticalLabelPosition=bottom;shadow=0;dashed=0;align=center;html=1;verticalAlign=top;shape=mxgraph.electrical.logic_gates.inverting_contact;" vertex="1" parent="1">
                    <mxGeometry x="600" y="230" width="10" height="10" as="geometry"/>
                </mxCell>
                <mxCell id="21" value="c" style="verticalLabelPosition=bottom;shadow=0;dashed=0;align=center;html=1;verticalAlign=top;shape=mxgraph.electrical.logic_gates.inverting_contact;" vertex="1" parent="1">
                    <mxGeometry x="600" y="350" width="10" height="10" as="geometry"/>
                </mxCell>
                <mxCell id="22" value="d" style="verticalLabelPosition=bottom;shadow=0;dashed=0;align=center;html=1;verticalAlign=top;shape=mxgraph.electrical.logic_gates.inverting_contact;" vertex="1" parent="1">
                    <mxGeometry x="600" y="390" width="10" height="10" as="geometry"/>
                </mxCell>
            </root>
        </mxGraphModel>
    </diagram>
</mxfile>